# xmcd
#
# Track frame offsets: 
#        150
#        19630
#        32342
#        51572
#        80902
#        92320
#        96247
#        114577
#        143182
#        159572
#        172935
#        193860
#
# Disc length: 2871 seconds
#
# Revision: 1
# Processed by: cddbd v1.5.2PL0 Copyright (c) Steve Scherf et al.
# Submitted via: ExactAudioCopy v0.95b4
#
DISCID=970b350c
DTITLE=Enrico Pieranunzi - Canto Nascosto - Enrico Pieranunzi
DYEAR=2000
DGENRE=Jazz
TTITLE0=Canto di ieri (E.Pieranunzi. piano Steinway)
TTITLE1=Canzone del meriggio (E.Pieranunzi. piano Kawai)
TTITLE2=A second thought (E.Pieranunzi. piano Steinway)
TTITLE3=Una piccola chiave dorata (E.Pieranunzi. piano Fazioli)
TTITLE4=Improvvisazione II (E.Pieranunzi. piano Fazioli)
TTITLE5=Improvvisazione I (E.Pieranunzi. piano Kawai)
TTITLE6=A second thought (E.Pieranunzi. piano Borgato)
TTITLE7=Canto nascosto (E.Pieranunzi. piano Fazioli)
TTITLE8=Per due (E.Pieranunzi-S.Tallini. piano Steinway)
TTITLE9=Io non saprò mai perchè (E.Pieranunzi. piano Borgato)
TTITLE10=A second thought (E.Pieranunzi. piano Kawai)
TTITLE11=Todas las tardes (E.Pieranunzi. piano Fazioli)
EXTD=YEAR: 2000
EXTT0=
EXTT1=
EXTT2=
EXTT3=
EXTT4=
EXTT5=
EXTT6=
EXTT7=
EXTT8=
EXTT9=
EXTT10=
EXTT11=
PLAYORDER=
